<?xml version="1.0" encoding="UTF-8" standalone="no"?>
<svg
   xmlns:dc="http://purl.org/dc/elements/1.1/"
   xmlns:cc="http://creativecommons.org/ns#"
   xmlns:rdf="http://www.w3.org/1999/02/22-rdf-syntax-ns#"
   xmlns:svg="http://www.w3.org/2000/svg"
   xmlns="http://www.w3.org/2000/svg"
   xmlns:sodipodi="http://sodipodi.sourceforge.net/DTD/sodipodi-0.dtd"
   xmlns:inkscape="http://www.inkscape.org/namespaces/inkscape"
   width="48"
   height="48"
   viewBox="0 0 48 48"
   fill="none"
   version="1.1"
   id="svg4"
   sodipodi:docname="head_up_display.svg"
   inkscape:version="1.0.1 (3bc2e813f5, 2020-09-07)">
  <metadata
     id="metadata10">
    <rdf:RDF>
      <cc:Work
         rdf:about="">
        <dc:format>image/svg+xml</dc:format>
        <dc:type
           rdf:resource="http://purl.org/dc/dcmitype/StillImage" />
        <dc:title />
      </cc:Work>
    </rdf:RDF>
  </metadata>
  <defs
     id="defs8" />
  <sodipodi:namedview
     pagecolor="#ffffff"
     bordercolor="#666666"
     borderopacity="1"
     objecttolerance="10"
     gridtolerance="10"
     guidetolerance="10"
     inkscape:pageopacity="0"
     inkscape:pageshadow="2"
     inkscape:window-width="1920"
     inkscape:window-height="986"
     id="namedview6"
     showgrid="true"
     inkscape:snap-intersection-paths="true"
     inkscape:snap-grids="true"
     inkscape:zoom="5.6568543"
     inkscape:cx="15.42544"
     inkscape:cy="13.291854"
     inkscape:window-x="-11"
     inkscape:window-y="-11"
     inkscape:window-maximized="1"
     inkscape:current-layer="svg4"
     inkscape:document-rotation="0">
    <inkscape:grid
       type="xygrid"
       id="grid16" />
  </sodipodi:namedview>
  <path
     id="rect18"
     style="fill:#ffffff;fill-rule:evenodd;stroke-width:1.27844"
     d="M 6,3 V 25 H 42 V 3 Z M 8,5 H 40 V 23 H 8 Z"
     sodipodi:nodetypes="cccccccccc" />
  <rect
     style="fill:#ffffff;fill-rule:evenodd;stroke-width:1.34338"
     id="rect20"
     width="44"
     height="2"
     x="2"
     y="27" />
  <path
     id="rect22"
     style="fill:#ffffff;fill-rule:evenodd;stroke-width:1.34338"
     d="m 5.000001,32 -3,13 H 46 L 43.000001,32 Z M 7,33.497184 41,33.5 43,43.502816 5,43.5 Z"
     sodipodi:nodetypes="cccccccccc" />
  <path
     id="path50"
     style="fill:#ffffff;fill-rule:evenodd;stroke-width:10.1188"
     d="m 23.857665,6.94519 a 5.6878712,4.5058199 0 0 0 -5.545654,4.509156 5.6878712,4.5058199 0 0 0 0.60962,2.017456 h -0.02686 l 2.54053,4.163087 2.551267,4.150267 2.556641,-4.150267 2.513672,-4.122071 a 5.6878712,4.5058199 0 0 0 0.02685,-0.04101 5.6878712,4.5058199 0 0 0 0.604249,-2.017457 5.6878712,4.5058199 0 0 0 -5.685304,-4.5091556 5.6878712,4.5058199 0 0 0 -0.145019,0 z M 24,9.0292968 A 3.3945312,2.625 0 0 1 27.39453,11.654296 3.3945312,2.625 0 0 1 24,14.279296 3.3945312,2.625 0 0 1 20.605468,11.654296 3.3945312,2.625 0 0 1 24,9.0292968 Z" />
  <path
     id="path50-9"
     style="fill:#ffffff;fill-rule:evenodd;stroke-width:7.37493"
     d="m 23.986571,34.5 -2.551267,2.20459 -2.54053,2.21228 h 0.02685 a 5.6878712,2.3935234 0 0 0 -0.609621,1.071533 5.6878712,2.3935234 0 0 0 5.545655,2.394286 5.6878712,2.3935234 0 0 0 0.145019,0 5.6878712,2.3935234 0 0 0 5.685304,-2.394286 5.6878712,2.3935234 0 0 0 -0.604249,-1.071533 5.6878712,2.3935234 0 0 0 -0.02685,-0.02307 L 26.54321,36.704592 Z m 0.01343,3.986205 a 3.3945312,1.3944185 0 0 1 3.39453,1.394532 3.3945312,1.3944185 0 0 1 -3.39453,1.394532 3.3945312,1.3944185 0 0 1 -3.394532,-1.394532 3.3945312,1.3944185 0 0 1 3.394532,-1.394532 z" />
</svg>
